# xmcd
#
# Track frame offsets:
# 150
# 16855
# 19889
# 43784
# 62491
# 84868
# 102554
# 122648
# 138612
# 160654
# 176810
#
# Disc length: 2682 seconds
#
#
# Revision: 0
# Processed by: cddbd v1.5PL3 Copyright (c) Steve Scherf et al.
# Submitted via: CDLP Version 5
#
DISCID=8a0a780b
DTITLE=一青窈 - 一青想（ひとおもい）
DYEAR=1900
DGENRE=Soundtrack
TTITLE0=今日わずらい
TTITLE1=ＩＮＴＥＲＬＵＤＥ（映画「珈琲時光」より）
TTITLE2=一思案（ひとしあん）（映画「珈琲時光」主題歌）
TTITLE3=いろはもみじ
TTITLE4=面影モダン
TTITLE5=うやむや
TTITLE6=金魚すくい
TTITLE7=江戸ポルカ
TTITLE8=大家（ダージャー）
TTITLE9=夢なかば
TTITLE10=ハナミズキ（「火曜サスペンス劇場」主題歌）
EXTD=
EXTT0=
EXTT1=
EXTT2=
EXTT3=
EXTT4=
EXTT5=
EXTT6=
EXTT7=
EXTT8=
EXTT9=
EXTT10=
PLAYORDER=
